<?xml version="1.0" standalone="no"?>
<!DOCTYPE svg PUBLIC "-//W3C//DTD SVG 20010904//EN"
 "http://www.w3.org/TR/2001/REC-SVG-20010904/DTD/svg10.dtd">
<svg version="1.0" xmlns="http://www.w3.org/2000/svg"
 width="260.000000pt" height="260.000000pt" viewBox="0 0 260.000000 260.000000"
 preserveAspectRatio="xMidYMid meet">
<metadata>
Created by potrace 1.11, written by Peter Selinger 2001-2013
</metadata>
<g transform="translate(0.000000,260.000000) scale(0.100000,-0.100000)"
fill="#000000" stroke="none">
<path d="M248 2003 c-103 -103 -188 -192 -188 -198 0 -13 1229 -1465 1240
-1465 7 0 1127 1316 1225 1439 l19 25 -198 193 -199 193 -855 0 -856 0 -188
-187z m272 7 l0 -110 40 -20 c72 -37 75 -48 78 -367 3 -228 1 -283 -10 -282
-10 0 -394 444 -460 533 -17 22 -15 24 145 189 116 120 168 168 185 167 21 0
22 -3 22 -110z m1618 95 c15 -8 91 -79 169 -157 l142 -143 -182 -215 -182
-215 -7 105 c-22 307 -138 495 -373 606 l-70 33 238 1 c192 0 243 -3 265 -15z
m-788 -240 c63 -32 133 -166 156 -297 12 -68 13 -105 4 -208 -19 -217 -39
-275 -93 -285 -17 -3 -88 -6 -157 -8 l-125 -2 -3 392 c-2 346 0 393 14 407 21
22 163 22 204 1z m240 -1071 c0 -9 -292 -349 -300 -349 -11 0 -290 332 -290
344 0 8 91 11 295 11 162 0 295 -3 295 -6z"/>
</g>
</svg>
