<?xml version="1.0" standalone="no"?>
<!DOCTYPE svg PUBLIC "-//W3C//DTD SVG 20010904//EN"
 "http://www.w3.org/TR/2001/REC-SVG-20010904/DTD/svg10.dtd">
<svg version="1.0" xmlns="http://www.w3.org/2000/svg"
 width="218.000000pt" height="218.000000pt" viewBox="0 0 218.000000 218.000000"
 preserveAspectRatio="xMidYMid meet">
<metadata>
Created by potrace 1.11, written by Peter Selinger 2001-2013
</metadata>
<g transform="translate(0.000000,218.000000) scale(0.100000,-0.100000)"
fill="#000000" stroke="none">
<path d="M169 1734 c-90 -91 -164 -169 -164 -174 0 -16 1077 -1281 1088 -1277
6 2 252 289 548 638 l537 634 -171 173 -172 172 -751 0 -751 0 -164 -166z
m231 3 l0 -93 35 -17 c67 -32 70 -43 73 -315 2 -153 0 -243 -6 -241 -12 5
-402 465 -402 474 0 13 274 285 287 285 10 0 13 -22 13 -93z m1548 -41 l135
-133 -154 -182 -154 -181 -7 103 c-14 229 -109 392 -285 489 l-68 38 199 0
200 0 134 -134z m-813 -88 c61 -28 126 -177 133 -309 5 -101 -13 -276 -34
-329 l-15 -37 -97 -6 c-53 -4 -114 -7 -134 -7 l-38 0 0 343 c0 189 3 347 7
350 11 12 150 8 178 -5z m184 -945 c-8 -10 -64 -78 -126 -150 l-112 -132 -112
132 c-62 72 -119 140 -127 150 -14 16 -2 17 238 17 239 0 252 -1 239 -17z"/>
</g>
</svg>
